<svg width="240" height="40" viewBox="0 0 240 40" fill="none" xmlns="http://www.w3.org/2000/svg">
<path d="M213.842 40L208 33.9756V6.02442L213.842 0H233.789L240 5.92081V14.1113H230.105V9.60652L228.211 7.70692H219.737L217.842 9.60652V30.3935L219.737 32.2931H228.526L230.474 30.3935V27.137H240V33.9756L234.158 40H213.842Z" fill="black"/>
<path d="M240 20V25H223V20H240Z" fill="black"/>
<path d="M172 40V20V0H198.935L205 6.02442V21.4383L198.935 27.4627H182.217V40H172ZM182 21H193L196 18V9.5L193 7H182.217H172V21H182Z" fill="black"/>
<path d="M195 40L172 7H180L204 40H195Z" fill="black"/>
<path d="M142 40V0H169V8.24966H151.016H142V15.6309H165.362L162.468 19.5L165.362 23.2836H151.016H142V31.7503H169V40H142Z" fill="black"/>
<path d="M115.425 40V25.9973L113.5 22L102 0H113.733L119.518 18.3989H121.482L127.267 0H139L128 21.5L125.575 25.9973V40H115.425Z" fill="black"/>
<path d="M35 40V20V0H61.9354L68 6.02442V21.4383L61.9354 27.4627H45.2169V40H35ZM45 21H56L59 18V9.5L56 7H45.2169H35V21H45Z" fill="black"/>
<path d="M58 40L35 7H43L67 40H58Z" fill="black"/>
<path d="M5.84211 40L0 33.9756V6.02442L5.84211 0H25.7895L32 6V14.1113H22.1053V9.60652L20.2105 7.70692H11.7368L9.84211 9.60652V30.3935L11.7368 32.2931H20.5263L22.4737 30.3935V27.137H32V33.9756L26.1579 40H5.84211Z" fill="black"/>
<path d="M32 20V25H15V20H32Z" fill="black"/>
<path d="M81.3434 33.7983C86.1792 37.3777 92.5688 38.0276 98.035 35.3844C103.501 32.7417 107.08 27.2716 107.47 21.1655C103.655 23.5602 99.3218 25.9469 94.7236 28.1705C90.1241 30.3946 85.5722 32.3034 81.3434 33.7983Z" fill="black"/>
<path d="M75.2643 24.645C79.7639 23.3584 85.08 21.2738 90.3809 18.7106C95.6819 16.147 100.632 13.2676 104.464 10.5251C104.319 10.1729 104.192 9.88187 104.126 9.76557C101.692 5.43452 96.77 3 91.5151 3C88.996 3 86.4015 3.55889 83.9664 4.73668C76.4514 8.37065 72.3883 16.965 74.9091 23.8949C74.9547 24.0209 75.0922 24.3069 75.2643 24.645Z" fill="black"/>
<path d="M118.977 6.53173C118.772 6.08411 115.891 4.97658 106.476 7.71938C106.79 8.27692 107.596 10.1196 107.747 10.5228C107.994 11.1832 107.779 11.9316 107.222 12.3479C103.125 15.4096 97.6054 18.6739 91.6796 21.5398C85.7532 24.4055 79.7863 26.6957 74.8776 27.9888C74.7514 28.0221 74.6243 28.038 74.4986 28.038C73.9586 28.038 73.4463 27.7421 73.1715 27.242C72.9649 26.866 72.0908 25.0556 71.8715 24.4529C63.8167 30.158 62.818 33.1421 63.0235 33.5899C63.1819 33.9361 65.1854 34.902 72.0817 33.3076C78.1014 31.9154 85.6812 29.0863 93.4247 25.3416C101.168 21.5971 108.12 17.399 112.998 13.5212C118.587 9.07849 119.136 6.87775 118.977 6.53173Z" fill="black"/>
</svg>
